<svg xmlns="http://www.w3.org/2000/svg" width="64" height="64" viewBox="0 0 64 64"><rect width="56" height="56" x="4" y="4" fill="#facc15" stroke="#000" stroke-width="4" rx="8"/><path fill="none" d="M12 12 L52 12 L52 52 L12 52 Z"/><path fill="#121212" stroke="#000" stroke-width="2" d="M14 36 C20 34 44 34 50 36 C52 36.5 50 39 46 39 C38 39 26 39 18 39 C14 39 12 36.5 14 36 Z"/><path fill="#121212" stroke="#000" stroke-width="2" d="M22 35 L24 20 C25 18 30 17 32 19 C34 17 39 18 40 20 L42 35 Z"/><path fill="#a3e635" d="M22.5 32 L41.5 32 L41.8 35 L22.2 35 Z"/><rect width="10" height="7" x="20" y="41" fill="#121212" stroke="#000" stroke-width="1.5" rx="2"/><rect width="10" height="7" x="34" y="41" fill="#121212" stroke="#000" stroke-width="1.5" rx="2"/><path stroke="#121212" stroke-linecap="round" stroke-width="2" d="M30 43 L34 43"/></svg>